<svg xmlns="http://www.w3.org/2000/svg" width="128" height="128" viewBox="0 0 128 128">
  <g id="Group_1030" data-name="Group 1030" transform="translate(-189 -803)">
    <rect id="Rectangle_69" data-name="Rectangle 69" width="128" height="128" transform="translate(189 803)" fill="none"/>
    <g id="Group_1029" data-name="Group 1029" transform="translate(183.038 784.542)">
      <path id="Path_3" data-name="Path 3" d="M34.909,65.869c.413,0,.826-.021,1.238.01,1.661.124,3.2-.237,3.426-2.095.206-1.651-1.063-2.5-2.611-2.477-2.642.041-1.9-1.785-1.744-3.127q1.331-11.424,2.807-22.826c.237-1.857.526-3.849-1.961-4.128-2.25-.258-2.425,1.62-2.631,3.343-1.022,8.7-2.095,17.388-3.168,26.087C29.7,65.332,30.173,65.879,34.909,65.869Z" transform="translate(20.52 42.929)" fill="#6b18ff"/>
      <path id="Path_4" data-name="Path 4" d="M51.576,36.16c-5.325,4.984-11.145,6.78-17.966,2.982a2.2,2.2,0,0,0-3.405,1.125c-.568,1.424.289,2.291,1.476,2.951a16.622,16.622,0,0,0,8.72,2.415c5.892.175,10.3-2.4,14.21-6.1,1.114-1.042,1.7-2.3.557-3.591C54,34.653,52.712,35.1,51.576,36.16Z" transform="translate(19.901 78.934)" fill="#6b18ff"/>
      <path id="Path_5" data-name="Path 5" d="M29.316,35.381c-.867,1.249-1.4,2.57-.114,3.632,1.207,1,2.559.629,3.591-.609,2.662-3.22,5.263-4.417,7.853.1a2.151,2.151,0,0,0,2.879.774c.908-.32,1.176-1.063,1.187-2.3.114-.547-.423-1.207-.846-1.909C40.461,29.447,33.309,29.612,29.316,35.381Z" transform="translate(5.841 40.962)" fill="#6b18ff"/>
      <path id="Path_6" data-name="Path 6" d="M40.459,30.95c-3.983.062-6.109,2.167-8.132,4.448-1,1.145-1.507,2.446-.175,3.581,1.249,1.063,2.528.691,3.56-.547,2.662-3.189,5.263-4.458,7.874.1a2.127,2.127,0,0,0,3.23.6c1.238-.8,1.166-2.023.444-3.23C45.557,33.076,43.452,30.888,40.459,30.95Z" transform="translate(31.913 40.935)" fill="#6b18ff"/>
      <path id="Path_9" data-name="Path 9" d="M34.792,0C54.422,0,68.749,2.851,68.749,6.369S54.976,16.1,35.346,16.1,2.206,9.886,2.206,6.369,15.161,0,34.792,0Z" transform="translate(30.701 36.085)" fill="#ff3eaa"/>
      <path id="Path_2" data-name="Path 2" d="M105.969,70.83c-2.114-.557-2.306-1.5-2.266-3.312.161-6.473.282-12.946.211-19.409-.111-10.586-2.507-13.939-12.566-17.464-13.311-4.67-27.055-4.751-40.88-3.5A46.259,46.259,0,0,0,36.11,30.6c-3.887,1.682-6.847,4.143-7.824,8.489-.695.638-.059,25.067-.049,40.667,0,.78.542,14.915.7,17.042.574,7.537,1.52,14.982,4.028,22.164,3.262,9.35,9.505,15.458,19.242,17.575a72.372,72.372,0,0,0,19.534,1.823c14.036-.79,29.281-9.167,30.851-27.614.453-5.247.02-18.375,1.883-18.649,5.125-.76,6.8-4.6,7.34-8.9C112.637,75.583,109.856,71.843,105.969,70.83ZM33.533,37.959a8.934,8.934,0,0,1,5.216-3.566C57.014,29.014,75.128,29.4,93.01,36.2a9.585,9.585,0,0,1,4.337,2.553c.882.938,2.646,2.437,1.514,3.11-19.4,14.635-59.964,5.89-65.126-.182A3.008,3.008,0,0,1,33.533,37.959ZM91.772,91.14c.04,1.074.01,2.148.01,3.221,0,4.477-.614,5.045-4.612,4.366-.665-.111-1.551-.091-1.581-.871-.111-2.644-.745-5.389.342-7.911.493-1.145,1.893-2.624,3-2.32A3.842,3.842,0,0,1,91.772,91.14Zm9.6-3.637c-.846-.061-1.923-.405-2.447.77-.01,6.027-.316,10.795-.6,19.374-1.065,13.918-10.391,25.592-26.844,26.1a73.288,73.288,0,0,1-18.376-1.6c-7.411-1.671-12.375-6.058-15.244-13.017-3.282-7.972-3.917-16.461-4.682-24.909-.222-2.411-.181-4.862-.181-7.283-.01-12.936-.01-25.871-.01-39.05,16.362,9.623,33.782,9.7,51.513,6.99,2.054-.314,2.5-.03,2.477,2.006q-.166,11.943-.03,23.886a4.068,4.068,0,0,1-2.1,3.991c-3.282,1.834-3.766,4.69-3.705,8.175.181,10.17.07,10.191,10.291,10.089a3.524,3.524,0,0,0,3.228-2.326c.586-1.33,2.086-8.531,1.042-13.183s-2.991-2.35-3.907-4.092c-.946-4.214-.916-28.363-.081-30.237l7.35-3.738c.715,5.369.1,17.119-.141,24.23.232,1.722,1.571,1.57,2.688,1.459,3.585-.355,4.719.989,4.823,4.8.027.984-.021,1.625.02,2.816A4.738,4.738,0,0,1,101.368,87.5Z" transform="translate(0 0)" fill="#6b18ff"/>
    </g>
  </g>
</svg>
