<svg xmlns="http://www.w3.org/2000/svg" width="96" height="96" viewBox="0 0 96 96">
  <g id="Group_1088" data-name="Group 1088" transform="translate(10 -806)">
    <g id="Group_1087" data-name="Group 1087" transform="translate(-21.962 785.542)">
      <path id="Path_9" data-name="Path 9" d="M27.194,0c15.054,0,26.04,2.118,26.04,4.731s-10.561,7.23-25.615,7.23S2.206,7.344,2.206,4.731,12.14,0,27.194,0Z" transform="translate(29.43 33.609)" fill="#da2323"/>
      <g id="Group_1029" data-name="Group 1029">
        <path id="Path_3" data-name="Path 3" d="M33.666,56.955c.307,0,.613-.015.92.008,1.234.092,2.376-.176,2.545-1.556.153-1.227-.79-1.855-1.939-1.84-1.962.031-1.41-1.326-1.3-2.323q.989-8.486,2.085-16.957c.176-1.38.391-2.859-1.457-3.066-1.671-.192-1.8,1.2-1.955,2.484-.759,6.462-1.556,12.917-2.353,19.379C29.8,56.556,30.148,56.962,33.666,56.955Z" transform="translate(15.185 31.163)" fill="#424c55"/>
        <path id="Path_4" data-name="Path 4" d="M46.035,35.9c-3.956,3.7-8.279,5.036-13.346,2.215a1.633,1.633,0,0,0-2.53.836c-.422,1.058.215,1.7,1.1,2.192a12.348,12.348,0,0,0,6.478,1.794c4.377.13,7.65-1.786,10.556-4.53.828-.774,1.265-1.709.414-2.668C47.836,34.782,46.878,35.111,46.035,35.9Z" transform="translate(14.855 57.201)" fill="#424c55"/>
        <path id="Path_5" data-name="Path 5" d="M29.089,34.242c-.644.928-1.043,1.909-.084,2.7a1.778,1.778,0,0,0,2.668-.452c1.978-2.392,3.91-3.281,5.834.077a1.6,1.6,0,0,0,2.139.575c.675-.238.874-.79.882-1.709.084-.406-.314-.9-.629-1.418C37.368,29.834,32.055,29.957,29.089,34.242Z" transform="translate(4.219 29.625)" fill="#424c55"/>
        <path id="Path_6" data-name="Path 6" d="M38.116,30.95c-2.959.046-4.538,1.61-6.041,3.3-.744.851-1.119,1.817-.13,2.66a1.713,1.713,0,0,0,2.645-.406c1.978-2.369,3.91-3.312,5.849.077a1.58,1.58,0,0,0,2.4.445c.92-.6.866-1.5.33-2.4C41.9,32.529,40.339,30.9,38.116,30.95Z" transform="translate(23.67 29.605)" fill="#424c55"/>
        <path id="Path_2" data-name="Path 2" d="M87.392,59.737c-1.611-.418-1.757-1.124-1.726-2.484.123-4.855.215-9.709.161-14.556-.084-7.939-1.91-10.454-9.574-13.1-10.141-3.5-20.612-3.563-31.145-2.629a35.7,35.7,0,0,0-10.939,2.6c-2.961,1.261-5.216,3.107-5.96,6.367-.529.479-.045,18.8-.037,30.5,0,.585.413,11.186.536,12.782A63.919,63.919,0,0,0,31.777,95.84c2.485,7.012,7.242,11.594,14.66,13.181a55.979,55.979,0,0,0,14.882,1.368c10.694-.593,22.308-6.876,23.5-20.71.345-3.935.015-13.782,1.434-13.987,3.9-.57,5.183-3.453,5.592-6.678C92.472,63.3,90.353,60.5,87.392,59.737ZM32.206,35.084a6.81,6.81,0,0,1,3.974-2.674,64.129,64.129,0,0,1,41.34,1.352,7.327,7.327,0,0,1,3.3,1.915c.672.7,2.016,1.828,1.153,2.332-14.783,10.977-45.684,4.418-49.617-.137A2.229,2.229,0,0,1,32.206,35.084ZM76.576,74.97c.031.805.008,1.611.008,2.416,0,3.358-.468,3.783-3.513,3.274-.506-.084-1.181-.068-1.2-.653-.084-1.983-.568-4.042.261-5.934.376-.858,1.442-1.968,2.286-1.74A2.894,2.894,0,0,1,76.576,74.97Zm7.311-2.727c-.644-.046-1.465-.3-1.864.577-.008,4.52-.241,8.1-.46,14.531-.811,10.439-7.917,19.194-20.451,19.574a56.69,56.69,0,0,1-14-1.2A15.569,15.569,0,0,1,35.5,95.961C33,89.982,32.513,83.615,31.93,77.279c-.169-1.808-.138-3.647-.138-5.462-.008-9.7-.008-19.4-.008-29.288,12.466,7.217,25.737,7.278,39.246,5.242,1.565-.236,1.9-.023,1.887,1.5q-.127,8.957-.023,17.915a3.04,3.04,0,0,1-1.6,2.993c-2.5,1.375-2.869,3.518-2.823,6.131.138,7.628.054,7.643,7.84,7.567a2.681,2.681,0,0,0,2.459-1.745c.446-1,1.589-6.4.794-9.887s-2.278-1.763-2.976-3.069c-.721-3.16-.7-21.273-.061-22.678l5.6-2.8c.545,4.027.077,12.84-.107,18.173.176,1.292,1.2,1.178,2.048,1.094,2.731-.266,3.595.742,3.674,3.6.021.738-.016,1.219.015,2.112A3.583,3.583,0,0,1,83.887,72.242Z" transform="translate(0 0)" fill="#424c55"/>
      </g>
    </g>
    <rect id="Rectangle_95" data-name="Rectangle 95" width="96" height="96" transform="translate(-10 806)" fill="none"/>
  </g>
</svg>
