<svg xmlns="http://www.w3.org/2000/svg" width="64" height="64" viewBox="0 0 64 64">
  <g id="Group_1135" data-name="Group 1135" transform="translate(-1078 -613)">
    <path id="Path_35" data-name="Path 35" d="M35.744,1A9.118,9.118,0,0,0,28.7,4.25,9.12,9.12,0,0,0,21.665,1a8.8,8.8,0,0,0-8.971,8.6c0,9.621,14.448,18.758,15.054,19.152a1.9,1.9,0,0,0,1.891,0c.617-.384,15.055-9.531,15.055-19.152A8.774,8.774,0,0,0,35.744,1ZM16.167,9.587A5.538,5.538,0,0,1,27.029,8.356a1.753,1.753,0,0,0,3.381,0A5.532,5.532,0,0,1,41.261,9.587c0,5.987-8.313,12.881-12.536,15.745C24.48,22.466,16.167,15.594,16.167,9.587Z" transform="translate(1081.306 630)" fill="#da2323"/>
    <rect id="Rectangle_110" data-name="Rectangle 110" width="64" height="64" transform="translate(1078 613)" fill="none"/>
  </g>
</svg>
