<svg xmlns="http://www.w3.org/2000/svg" width="80" height="80" viewBox="0 0 80 80">
  <g id="Group_1136" data-name="Group 1136" transform="translate(-1078 -755)">
    <path id="Union_2" data-name="Union 2" d="M-325.363,50.384C-337.108,49.272-347,44.968-344.65,37.435c5.541-17.729,12.826-34.762,12.826-34.762h.036c.415-3,4.357-5.463,9.59-6.19C-322.088-6.021-320.7-8-319-8s3.09,1.979,3.2,4.483c5.233.726,9.175,3.193,9.59,6.19h.036s7.334,17.185,12.826,34.762c2.332,7.459-7.555,11.78-19.284,12.928A6.41,6.41,0,0,1-319,56,6.411,6.411,0,0,1-325.363,50.384Z" transform="translate(1437 771)" fill="#da2323"/>
    <rect id="Rectangle_111" data-name="Rectangle 111" width="80" height="80" transform="translate(1078 755)" fill="none"/>
  </g>
</svg>
