<svg xmlns="http://www.w3.org/2000/svg" width="80" height="80" viewBox="0 0 80 80">
  <g id="Group_1092" data-name="Group 1092" transform="translate(-503 -1432)">
    <rect id="Rectangle_69" data-name="Rectangle 69" width="80" height="80" transform="translate(503 1432)" fill="none"/>
    <path id="Exclusion_2" data-name="Exclusion 2" d="M17,32H15a2.949,2.949,0,0,1-2.946-2.946v-.679a12.955,12.955,0,0,1-2.006-.833l-.482.482a2.946,2.946,0,0,1-4.167,0L3.976,26.6a2.941,2.941,0,0,1,0-4.167l.481-.481a12.958,12.958,0,0,1-.833-2.006H2.946A2.949,2.949,0,0,1,0,17V15A2.949,2.949,0,0,1,2.946,12.05h.679a12.96,12.96,0,0,1,.833-2.006l-.482-.481a2.946,2.946,0,0,1,0-4.167L5.4,3.976a2.941,2.941,0,0,1,4.167,0l.481.481a12.968,12.968,0,0,1,2.006-.833V2.946A2.949,2.949,0,0,1,15,0H17A2.949,2.949,0,0,1,19.95,2.946v.679a12.957,12.957,0,0,1,2.006.833l.482-.482a2.946,2.946,0,0,1,4.167,0L28.024,5.4a2.941,2.941,0,0,1,0,4.167l-.481.481a12.957,12.957,0,0,1,.833,2.006h.679A2.949,2.949,0,0,1,32,15V17a2.949,2.949,0,0,1-2.946,2.946h-.679a12.961,12.961,0,0,1-.833,2.006l.482.482a2.946,2.946,0,0,1,0,4.167l-1.42,1.42a2.941,2.941,0,0,1-4.167,0l-.481-.481a12.968,12.968,0,0,1-2.006.833v.679A2.949,2.949,0,0,1,17,32ZM16,11a5,5,0,1,0,5,5A5.006,5.006,0,0,0,16,11Z" transform="translate(527 1456)" fill="#424c55"/>
  </g>
</svg>
