<svg xmlns="http://www.w3.org/2000/svg" width="32" height="32" viewBox="0 0 32 32">
  <g id="Group_1092" data-name="Group 1092" transform="translate(70 -1512)">
    <path id="Exclusion_2" data-name="Exclusion 2" d="M15.941,30H14.059A2.765,2.765,0,0,1,11.3,27.238V26.6a12.145,12.145,0,0,1-1.881-.781l-.451.451a2.762,2.762,0,0,1-3.906,0L3.728,24.941a2.757,2.757,0,0,1,0-3.906l.451-.451A12.148,12.148,0,0,1,3.4,18.7H2.762A2.765,2.765,0,0,1,0,15.942V14.059A2.765,2.765,0,0,1,2.762,11.3H3.4a12.15,12.15,0,0,1,.781-1.881l-.451-.451a2.762,2.762,0,0,1,0-3.906L5.059,3.728a2.757,2.757,0,0,1,3.906,0l.451.451A12.158,12.158,0,0,1,11.3,3.4V2.762A2.765,2.765,0,0,1,14.059,0h1.883A2.765,2.765,0,0,1,18.7,2.762V3.4a12.148,12.148,0,0,1,1.881.781l.451-.451a2.762,2.762,0,0,1,3.906,0l1.331,1.331a2.757,2.757,0,0,1,0,3.906l-.451.451A12.147,12.147,0,0,1,26.6,11.3h.637A2.765,2.765,0,0,1,30,14.059v1.883A2.765,2.765,0,0,1,27.238,18.7H26.6a12.151,12.151,0,0,1-.781,1.881l.451.451a2.762,2.762,0,0,1,0,3.906l-1.331,1.331a2.757,2.757,0,0,1-3.906,0l-.451-.451A12.157,12.157,0,0,1,18.7,26.6v.637A2.765,2.765,0,0,1,15.941,30ZM15,10.313A4.687,4.687,0,1,0,19.688,15,4.693,4.693,0,0,0,15,10.313Z" transform="translate(-69 1513)" fill="#424c55"/>
    <rect id="Rectangle_99" data-name="Rectangle 99" width="32" height="32" transform="translate(-70 1512)" fill="none"/>
  </g>
</svg>
