<svg xmlns="http://www.w3.org/2000/svg" width="80" height="80" viewBox="0 0 80 80">
  <g id="Group_1094" data-name="Group 1094" transform="translate(-197 -1378)">
    <g id="multimedia" transform="translate(223 1404)">
      <path id="Path_18" data-name="Path 18" d="M207.868,0a6.656,6.656,0,0,0-4.737,1.963L197.914,7.18a7.918,7.918,0,0,1,4.442.507l3.25-3.25a3.2,3.2,0,1,1,4.525,4.525l-5.85,5.85a3.278,3.278,0,0,1-4.525,0l-2.473,2.476a6.7,6.7,0,0,0,9.473,0l5.85-5.85A6.7,6.7,0,0,0,207.868,0Z" transform="translate(-186.568 0)" fill="#424c55"/>
      <path id="Path_19" data-name="Path 19" d="M12.182,173.828l-3.219,3.219a3.2,3.2,0,1,1-4.525-4.525l5.85-5.85a3.278,3.278,0,0,1,4.525,0l2.473-2.476a6.862,6.862,0,0,0-9.473,0l-5.85,5.85a6.7,6.7,0,1,0,9.475,9.475l5.148-5.148a8.486,8.486,0,0,1-1.136.111A8.433,8.433,0,0,1,12.182,173.828Z" transform="translate(0 -153.485)" fill="#424c55"/>
    </g>
    <rect id="Rectangle_97" data-name="Rectangle 97" width="80" height="80" transform="translate(197 1378)" fill="none"/>
  </g>
</svg>
