<svg xmlns="http://www.w3.org/2000/svg" width="64" height="64" viewBox="0 0 64 64">
  <g id="Group_1134" data-name="Group 1134" transform="translate(-1078 -635)">
    <g id="Group_1124" data-name="Group 1124" transform="translate(1090 648)">
      <g id="Group_1103" data-name="Group 1103" transform="translate(4 3)">
        <g id="Group_1102" data-name="Group 1102">
          <path id="Path_32" data-name="Path 32" d="M21.6,8.337V23.3a1.6,1.6,0,0,1-3.2,0V8.332l-1.807,1.763a1.617,1.617,0,0,1-2.252-.01,1.534,1.534,0,0,1-.01-2.2l4.546-4.435A1.594,1.594,0,0,1,19.992,3L20,3a1.6,1.6,0,0,1,1.114.447l4.546,4.435a1.523,1.523,0,0,1-.01,2.2,1.629,1.629,0,0,1-2.252.01ZM7.2,31.878H32.8V20.944a1.6,1.6,0,0,1,3.2,0v12.5a1.528,1.528,0,0,1-.466,1.1A1.625,1.625,0,0,1,34.4,35H5.6a1.613,1.613,0,0,1-1.127-.453,1.541,1.541,0,0,1-.47-1.1v-12.5a1.6,1.6,0,0,1,3.2,0Z" transform="translate(-4 -3)" fill="#da2323" fill-rule="evenodd"/>
        </g>
      </g>
    </g>
    <rect id="Rectangle_109" data-name="Rectangle 109" width="64" height="64" transform="translate(1078 635)" fill="none"/>
  </g>
</svg>
