<svg xmlns="http://www.w3.org/2000/svg" width="80" height="80" viewBox="0 0 80 80">
  <g id="Group_1091" data-name="Group 1091" transform="translate(-503 -1348)">
    <rect id="Rectangle_70" data-name="Rectangle 70" width="80" height="80" transform="translate(503 1348)" fill="none"/>
    <g id="statistics" transform="translate(516 1361)">
      <g id="Group_1009" data-name="Group 1009" transform="translate(11 11)">
        <path id="Path_14" data-name="Path 14" d="M93.732,117.5l5.04-7.368,5.334,5.147a1.325,1.325,0,0,0,2.017-.2l8.853-12.691.32,4.246a1.336,1.336,0,0,0,1.325,1.235,1.357,1.357,0,0,0,1.332-1.437l-.561-7.466a1.332,1.332,0,0,0-1.43-1.228L108.5,98.3a1.333,1.333,0,0,0,.2,2.658l4.244-.32-8.109,11.627-5.347-5.154a1.319,1.319,0,0,0-2.024.209L92.7,114.284v3.782A1.327,1.327,0,0,0,93.732,117.5Z" transform="translate(-87.356 -92.072)" fill="#424c55"/>
        <path id="Path_15" data-name="Path 15" d="M41.668,40.336h-28v-28a1.332,1.332,0,1,0-2.664,0V41.668A1.329,1.329,0,0,0,12.332,43H41.668a1.332,1.332,0,1,0,0-2.664Z" transform="translate(-11 -11)" fill="#424c55"/>
      </g>
    </g>
  </g>
</svg>
